<svg id="Layer_1" data-name="Layer 1" xmlns="http://www.w3.org/2000/svg" xmlns:xlink="http://www.w3.org/1999/xlink" viewBox="0 0 312.98 289.96"><defs><style>.cls-1{fill:url(#linear-gradient);}.cls-2{fill:#231f20;}.cls-3,.cls-6{fill-rule:evenodd;}.cls-3{fill:url(#linear-gradient-2);}.cls-4{fill:url(#linear-gradient-3);}.cls-5{opacity:0.63;fill:url(#linear-gradient-4);}.cls-5,.cls-6{isolation:isolate;}.cls-6{opacity:0.65;fill:url(#linear-gradient-5);}.cls-7{fill:none;}</style><linearGradient id="linear-gradient" x1="80.23" y1="173.63" x2="143.89" y2="97.05" gradientTransform="matrix(1, 0, 0, -1, 0, 300.23)" gradientUnits="userSpaceOnUse"><stop offset="0" stop-color="#404041"/><stop offset="0.46" stop-color="#6d6e70" stop-opacity="0.99"/><stop offset="0.97" stop-color="#ec1c24" stop-opacity="0.97"/></linearGradient><linearGradient id="linear-gradient-2" x1="255.24" y1="178.42" x2="182.26" y2="220.04" gradientTransform="matrix(1, 0, 0, -1, 0, 300.23)" gradientUnits="userSpaceOnUse"><stop offset="0" stop-color="#404041"/><stop offset="0.11" stop-color="#493e40"/><stop offset="0.3" stop-color="#61393c" stop-opacity="0.99"/><stop offset="0.53" stop-color="#873135" stop-opacity="0.98"/><stop offset="0.79" stop-color="#bd262c" stop-opacity="0.98"/><stop offset="1" stop-color="#ec1c24" stop-opacity="0.97"/></linearGradient><linearGradient id="linear-gradient-3" x1="250.57" y1="216.9" x2="147.15" y2="56.37" gradientTransform="matrix(1, 0, 0, -1, 0, 300.23)" gradientUnits="userSpaceOnUse"><stop offset="0" stop-color="#404041"/><stop offset="0.15" stop-color="#68383a"/><stop offset="0.35" stop-color="#972e32"/><stop offset="0.54" stop-color="#bc262c"/><stop offset="0.72" stop-color="#d62128"/><stop offset="0.88" stop-color="#e61d25"/><stop offset="1" stop-color="#ec1c24"/></linearGradient><linearGradient id="linear-gradient-4" x1="222.29" y1="244.51" x2="186.31" y2="188.66" gradientTransform="matrix(1, 0, 0, -1, 0, 300.23)" gradientUnits="userSpaceOnUse"><stop offset="0" stop-color="#252a61"/><stop offset="0.39" stop-color="#262c61" stop-opacity="0.61"/><stop offset="0.54" stop-color="#273362" stop-opacity="0.46"/><stop offset="0.65" stop-color="#2b3f64" stop-opacity="0.35"/><stop offset="0.75" stop-color="#305167" stop-opacity="0.25"/><stop offset="0.83" stop-color="#36676b" stop-opacity="0.17"/><stop offset="0.9" stop-color="#3d836f" stop-opacity="0.1"/><stop offset="0.96" stop-color="#46a475" stop-opacity="0.04"/><stop offset="1" stop-color="#4cb978" stop-opacity="0"/></linearGradient><linearGradient id="linear-gradient-5" x1="158.07" y1="162.31" x2="133.77" y2="68.57" gradientTransform="matrix(1, 0, 0, -1, 0, 300.23)" gradientUnits="userSpaceOnUse"><stop offset="0.01" stop-color="#30b998" stop-opacity="0"/><stop offset="0.04" stop-color="#2faf93" stop-opacity="0.03"/><stop offset="0.2" stop-color="#2a837e" stop-opacity="0.19"/><stop offset="0.36" stop-color="#265f6d" stop-opacity="0.34"/><stop offset="0.52" stop-color="#23435f" stop-opacity="0.5"/><stop offset="0.68" stop-color="#212f56" stop-opacity="0.66"/><stop offset="0.84" stop-color="#1f2350" stop-opacity="0.81"/><stop offset="1" stop-color="#1f1f4e" stop-opacity="0.97"/></linearGradient></defs><title>Artboard 1</title><polygon class="cls-1" points="78.7 68.91 51.4 121.01 126.5 238.11 187.4 238.11 78.7 68.91"/><path class="cls-2" d="M126.3,238.51l-.1-.2L51,121l.1-.2,27.6-52.7.4.6,109,169.8ZM51.9,121l74.8,116.7h60L78.8,69.71Z"/><polygon class="cls-3" points="139.8 107.61 164.5 55.51 231.3 56.51 262.8 107.31 139.8 107.61"/><path class="cls-2" d="M139.2,108l25-52.9,67.2,1,32,51.6Zm25.5-52.1-24.3,51.3,121.7-.3-31.1-50Z"/><polyline class="cls-4" points="126.5 238.11 187.4 238.11 262.8 107.31 231.3 56.51"/><polygon class="cls-2" points="187.6 238.51 126.5 238.51 126.5 237.71 187.1 237.71 262.4 107.31 230.9 56.71 231.6 56.31 263.3 107.31 187.6 238.51"/><path class="cls-5" d="M231.3,56.51c-2.4,1.8-55.3,51-55.3,51l25.9-.1Z"/><polygon class="cls-6" points="126.5 238.11 140.7 165.31 155.3 188.21 126.5 238.11"/><line class="cls-7" x1="231.3" y1="56.51" x2="126.5" y2="238.11"/><rect class="cls-2" x="74.04" y="146.91" width="209.7" height="0.8" transform="translate(-38.12 228.6) rotate(-60.01)"/></svg>